<svg width="20" height="20" viewBox="0 0 20 20" fill="none" xmlns="http://www.w3.org/2000/svg">
<g clip-path="url(#clip0_1253_4638)">
<path fill-rule="evenodd" clip-rule="evenodd" d="M1 11C1 8.23858 3.23858 6 6 6H14C16.7614 6 19 8.23858 19 11C19 13.7614 16.7614 16 14 16H6C3.23858 16 1 13.7614 1 11ZM9 11C9 12.6569 7.65685 14 6 14C4.34315 14 3 12.6569 3 11C3 9.34315 4.34315 8 6 8C7.65685 8 9 9.34315 9 11ZM14 14C15.6569 14 17 12.6569 17 11C17 9.34315 15.6569 8 14 8C12.3431 8 11 9.34315 11 11C11 12.6569 12.3431 14 14 14Z" fill="#111111"/>
</g>
<defs>
<clipPath id="clip0_1253_4638">
<rect width="20" height="20" fill="white"/>
</clipPath>
</defs>
</svg>
