<svg width="32" height="32" viewBox="0 0 32 32" fill="none" xmlns="http://www.w3.org/2000/svg">
    <path d="M28 4H4.00004C2.53337 4 1.33337 5.2 1.33337 6.66667V22.6667C1.33337 24.1333 2.53337 25.3333 4.00004 25.3333H10.6667V28H21.3334V25.3333H28C29.4667 25.3333 30.6667 24.1333 30.6667 22.6667V6.66667C30.6667 5.2 29.4667 4 28 4ZM28 22.6667H4.00004V6.66667H28V22.6667ZM25.3334 10.6667H10.6667V13.3333H25.3334V10.6667ZM25.3334 16H10.6667V18.6667H25.3334V16ZM9.33337 10.6667H6.66671V13.3333H9.33337V10.6667ZM9.33337 16H6.66671V18.6667H9.33337V16Z"
          fill="#0ABBB5"/>
</svg>