<svg width="160" height="53.67" viewBox="0 0 672 226" fill="none" xmlns="http://www.w3.org/2000/svg">
    <path
            d="M282.847 89.7641C282.847 87.7773 282.134 86.0839 280.707 84.6972C279.281 83.2971 277.554 82.6038 275.507 82.6038C273.474 82.6038 271.74 83.2971 270.287 84.6905C268.833 86.0906 268.12 87.7773 268.12 89.7574V135.259C268.12 137.246 268.833 138.933 270.287 140.339C271.74 141.726 273.474 142.42 275.514 142.42C277.554 142.42 279.281 141.726 280.707 140.339C282.134 138.939 282.847 137.246 282.847 135.259V89.7707V89.7641ZM275.854 70.1366C281.514 70.1366 286.321 72.0833 290.281 75.9702C294.235 79.8637 296.215 84.5505 296.215 90.0308V135.393C296.215 140.906 294.228 145.606 290.248 149.473C286.268 153.34 281.461 155.273 275.854 155.273C270.2 155.273 265.4 153.327 261.466 149.44C257.526 145.546 255.56 140.866 255.56 135.393V90.0308C255.56 84.5105 257.553 79.8103 261.526 75.9435C265.513 72.0767 270.287 70.1433 275.86 70.1433"
            fill="#0ABBB5"/>
    <path d="M316.897 155.213L301.69 70.1494H315.137L325.818 136.452L336.571 70.1494H350.025L334.545 155.213H316.897Z"
          fill="#0ABBB5"/>
    <path
            d="M356.978 155.279V70.1425H393.493V83.0363H369.805V106.264H387.119V119.158H369.805V142.372H393.493V155.279H356.978Z"
            fill="#0ABBB5"/>
    <path
            d="M531.057 89.7569C531.057 87.7702 530.344 86.0768 528.924 84.69C527.497 83.2967 525.764 82.6033 523.724 82.6033C521.69 82.6033 519.95 83.2967 518.503 84.6834C517.05 86.0834 516.323 87.7702 516.323 89.7502V135.212C516.323 137.192 517.05 138.879 518.503 140.279C519.95 141.666 521.69 142.359 523.73 142.359C525.764 142.359 527.497 141.666 528.917 140.272C530.344 138.872 531.057 137.192 531.057 135.205V89.7569ZM524.064 70.1428C529.731 70.1428 534.531 72.0895 538.491 75.9764C542.451 79.8698 544.431 84.5434 544.431 90.0169V135.345C544.438 140.866 542.438 145.546 538.464 149.406C534.477 153.279 529.677 155.213 524.064 155.213C518.41 155.213 513.61 153.279 509.676 149.393C505.743 145.499 503.77 140.819 503.77 135.345V90.0103C503.77 84.4967 505.763 79.7965 509.743 75.9364C513.73 72.0695 518.503 70.1428 524.064 70.1428Z"
            fill="#0ABBB5"/>
    <path
            d="M568.778 70.1425L585.792 127.358V70.1425H598.626V155.279H584.852L567.198 100.757V155.279H554.371V70.1425H568.778Z"
            fill="#0ABBB5"/>
    <path d="M621.403 155.205H608.562V70.1416H621.403V155.205Z" fill="#0ABBB5"/>
    <path
            d="M651.699 155.213C646.052 155.213 641.232 153.279 637.279 149.413C633.318 145.546 631.338 140.879 631.338 135.392V90.0369C631.338 84.5167 633.338 79.8165 637.312 75.943C641.292 72.0761 646.092 70.1427 651.699 70.1427C657.359 70.1427 662.166 72.0961 666.093 75.9763C670.027 79.8698 672 84.5633 672 90.0436V99.5106H658.706V89.7635C658.706 87.7768 657.973 86.0701 656.519 84.6633C655.073 83.2499 653.326 82.5299 651.299 82.5299C649.266 82.5299 647.526 83.2499 646.106 84.6633C644.672 86.0701 643.959 87.7768 643.959 89.7635V135.259C643.959 137.245 644.672 138.939 646.106 140.326C647.526 141.726 649.266 142.419 651.306 142.419C653.326 142.419 655.073 141.719 656.519 140.332C657.973 138.932 658.706 137.245 658.706 135.265V123.785H672V135.392C672 140.919 670.013 145.592 666.033 149.446C662.046 153.293 657.266 155.213 651.699 155.213Z"
            fill="#0ABBB5"/>
    <path
            d="M436.987 118.078C441.554 113.911 443.841 108.824 443.841 102.797V90.4436C443.841 84.2833 442.367 79.4898 439.434 76.043C436.074 72.1095 430.833 70.1427 423.673 70.1427H403.452V155.213H416.286V83.2366H424.02C428.913 83.2366 431.353 85.71 431.353 90.6369V103.071C431.353 105.111 430.64 106.851 429.22 108.304C427.793 109.744 426.06 110.471 424.02 110.471H421.513L432.613 155.206H446.481L436.987 118.078Z"
            fill="#0ABBB5"/>
    <path
            d="M493.837 114.783L465.903 97.9959V89.7622C465.903 87.7754 466.636 86.082 468.063 84.6953C469.51 83.2953 471.236 82.6019 473.263 82.6019C475.277 82.6019 476.997 83.2953 478.417 84.6953C479.823 86.082 480.53 87.7754 480.53 89.7622V93.1623L493.817 101.183V90.0222C493.817 84.542 491.864 79.8551 487.917 75.9616C483.984 72.0748 479.217 70.1281 473.603 70.1281C468.07 70.1281 463.329 72.0615 459.376 75.9283C455.422 79.8018 453.442 84.502 453.442 90.0222V104.476L480.537 120.763V135.251C480.537 137.237 479.83 138.917 478.423 140.324C477.003 141.711 475.29 142.418 473.263 142.418C471.243 142.418 469.516 141.711 468.07 140.324C466.636 138.924 465.916 137.237 465.916 135.257V125.59L453.442 118.07V135.384C453.442 140.864 455.396 145.544 459.309 149.438C463.209 153.325 467.976 155.271 473.597 155.271C479.163 155.271 483.93 153.338 487.884 149.471C491.837 145.604 493.811 140.904 493.811 135.384V128.75L493.837 114.783Z"
            fill="#0ABBB5"/>
    <path d="M204.574 225.422H198.581V-0.000628674H204.574V225.422Z" fill="#0ABBB5"/>
    <path
            d="M105.433 116.172L59.0975 87.8573V73.9701C59.0975 70.6166 60.2842 67.7699 62.671 65.4098C65.0511 63.063 67.9246 61.8896 71.278 61.8896C74.6382 61.8896 77.485 63.063 79.8384 65.4098C82.1918 67.7699 83.3585 70.6166 83.3585 73.9701V79.7037L105.393 93.2376V74.4168C105.393 65.1698 102.126 57.2694 95.6057 50.7025C89.0854 44.1422 81.1584 40.8621 71.8381 40.8621C62.671 40.8621 54.804 44.1289 48.2437 50.6492C41.6901 57.1761 38.4033 65.0964 38.4033 74.4168V98.7911L83.3585 126.259V150.693C83.3585 154.06 82.1918 156.9 79.8384 159.254C77.485 161.6 74.6382 162.774 71.278 162.774C67.9246 162.774 65.0511 161.6 62.671 159.254C60.2842 156.9 59.0909 154.053 59.0909 150.693V134.393L38.4033 121.719V150.92C38.4033 160.174 41.6435 168.067 48.1371 174.634C54.6173 181.188 62.5243 184.475 71.8381 184.475C81.0784 184.475 88.9921 181.214 95.5457 174.694C102.113 168.161 105.393 160.24 105.393 150.92V139.719L105.426 116.172H105.433Z"
            fill="#0ABBB5"/>
    <path
            d="M20.8542 73.1183C20.8542 59.3911 25.8344 44.6372 35.7948 35.0301C45.7553 25.4297 57.7024 21.0696 71.6297 21.0696C85.7636 21.0696 97.8041 25.4498 107.698 35.1101C117.605 44.7772 122.565 59.5111 122.565 73.1117V103.713L143.413 116.46V66.4914C143.413 49.7574 136.426 31.65 122.465 19.7695C108.491 7.88905 91.5305 0.0554238 71.5963 0.0554238C51.9555 0.0554238 35.1148 7.85571 21.0742 19.6562C7.02696 31.4833 0.00666696 49.6241 0.00666696 66.4914V75.3117L20.8542 88.0523V73.1183ZM122.565 152.315C122.565 166.042 117.572 180.796 107.611 190.403C97.6508 200.01 85.6569 204.344 71.6297 204.344C57.4758 204.344 45.4819 199.97 35.6282 190.31C25.7878 180.656 20.8609 165.915 20.8609 152.308V110.987L0 98.246V158.942C0 175.676 6.94696 193.783 20.8342 205.664C34.7148 217.544 51.6355 225.371 71.5897 225.371C91.3705 225.371 108.291 217.571 122.338 205.75C136.392 193.943 143.413 175.802 143.413 158.935V139.401L122.558 126.66L122.565 152.315Z"
            fill="#0ABBB5"/>
</svg>
