<svg xmlns="http://www.w3.org/2000/svg" width="104" height="39" viewBox="0 0 104 39">
    <defs>
        <filter id="1361e9z8da">
            <feColorMatrix in="SourceGraphic" values="0 0 0 0 0.219608 0 0 0 0 0.690196 0 0 0 0 0.615686 0 0 0 1.000000 0"/>
        </filter>
    </defs>
    <g fill="#0abbb5" fill-rule="evenodd">
        <g transform="translate(-16 -16)">
            <g>
                <g>
                    <g>
                        <g fill="#0ABBB5" fill-rule="nonzero">
                            <path d="M4.293 9.868c0 .298-.107.552-.321.76-.214.21-.473.314-.78.314-.305 0-.565-.104-.783-.313-.218-.21-.325-.463-.325-.76V3.044c0-.298.107-.551.325-.762.218-.208.478-.312.784-.312.306 0 .565.104.779.312.214.21.321.464.321.762v6.823zm-1.049 2.944c.849 0 1.57-.292 2.164-.875.593-.584.89-1.287.89-2.109V3.024c0-.827-.298-1.532-.895-2.112-.597-.58-1.318-.87-2.159-.87-.848 0-1.568.292-2.158.875C.495 1.501.2 2.203.2 3.024v6.804c0 .828.299 1.533.895 2.113.598.58 1.314.87 2.15.87" transform="translate(16 16) matrix(1 0 0 -1 0 38.28) translate(.01 .044) translate(38.632 11.379)"/>
                        </g>
                        <g fill="#0ABBB5" fill-rule="nonzero">
                            <path d="M2.453 0L0.172 12.759 2.189 12.759 3.791 2.814 5.404 12.759 7.422 12.759 5.1 0z" transform="translate(16 16) matrix(1 0 0 -1 0 38.28) translate(.01 .044) translate(45.578 11.43)"/>
                        </g>
                        <g fill="#0ABBB5" fill-rule="nonzero">
                            <path d="M0 0L0 12.77 5.477 12.77 5.477 10.836 1.924 10.836 1.924 7.352 4.521 7.352 4.521 5.418 1.924 5.418 1.924 1.936 5.477 1.936 5.477 0z" transform="translate(16 16) matrix(1 0 0 -1 0 38.28) translate(.01 .044) translate(54.044 11.42)"/>
                        </g>
                        <g fill="#0ABBB5" fill-rule="nonzero">
                            <path d="M4.293 9.868c0 .298-.107.552-.32.76-.214.209-.474.313-.78.313-.305 0-.566-.104-.783-.312-.218-.21-.327-.463-.327-.76V3.05c0-.297.109-.55.327-.76.217-.208.478-.312.784-.312.305 0 .565.104.778.313.214.21.321.462.321.76v6.817zM3.244 12.81c.85 0 1.57-.292 2.164-.875.594-.584.891-1.285.891-2.106V3.03C6.3 2.202 6 1.5 5.404.921 4.806.34 4.086.05 3.244.05c-.848 0-1.568.29-2.158.873C.496 1.507.2 2.209.2 3.03V9.83c0 .827.299 1.532.896 2.111.598.58 1.314.87 2.148.87" transform="translate(16 16) matrix(1 0 0 -1 0 38.28) translate(.01 .044) translate(75.86 11.38)"/>
                        </g>
                        <g fill="#0ABBB5" fill-rule="nonzero">
                            <path d="M2.173 12.881L4.725 4.299 4.725 12.881 6.65 12.881 6.65 0.111 4.584 0.111 1.936 8.289 1.936 0.111 0.012 0.111 0.012 12.881z" transform="translate(16 16) matrix(1 0 0 -1 0 38.28) translate(.01 .044) translate(83.639 11.309)"/>
                        </g>
                        <path fill="#0ABBB5" fill-rule="nonzero" d="M93.705 11.431L91.779 11.431 91.779 24.19 93.705 24.19z" transform="translate(16 16) matrix(1 0 0 -1 0 38.28) translate(.01 .044)"/>
                        <g fill="#0ABBB5" fill-rule="nonzero">
                            <path d="M3.067 0C2.22 0 1.497.29.904.87.31 1.45.013 2.15.013 2.973v6.803c0 .828.3 1.533.896 2.114.597.58 1.317.87 2.158.87.849 0 1.57-.293 2.159-.875.59-.584.886-1.288.886-2.11V8.355H4.118v1.462c0 .298-.11.554-.328.765-.217.212-.479.32-.783.32-.305 0-.566-.108-.779-.32-.215-.211-.322-.467-.322-.765V2.993c0-.298.107-.552.322-.76.213-.21.474-.314.78-.314.303 0 .565.105.782.313.218.21.328.463.328.76v1.722h1.994V2.973c0-.829-.298-1.53-.895-2.108C4.619.288 3.902 0 3.067 0" transform="translate(16 16) matrix(1 0 0 -1 0 38.28) translate(.01 .044) translate(95.182 11.43)"/>
                        </g>
                        <g fill="#0ABBB5" fill-rule="nonzero">
                            <path d="M5.24 5.574c.685.625 1.028 1.388 1.028 2.292v1.853c0 .924-.221 1.643-.661 2.16-.504.59-1.29.885-2.364.885H.21V.004h1.925V10.8h1.16c.734 0 1.1-.371 1.1-1.11V7.825c0-.306-.107-.567-.32-.785-.214-.216-.474-.325-.78-.325h-.376L4.584.005h2.08L5.24 5.575z" transform="translate(16 16) matrix(1 0 0 -1 0 38.28) translate(.01 .044) translate(60.803 11.426)"/>
                        </g>
                        <g fill="#0ABBB5" fill-rule="nonzero">
                            <path d="M6.133 6.134l-4.19 2.518v1.235c0 .298.11.552.324.76.217.21.476.314.78.314.302 0 .56-.104.773-.314.211-.208.317-.462.317-.76v-.51L6.13 8.174v1.674c0 .822-.293 1.525-.885 2.109-.59.583-1.305.875-2.147.875-.83 0-1.541-.29-2.134-.87-.593-.581-.89-1.286-.89-2.114V7.68l4.064-2.443V3.064c0-.298-.106-.55-.317-.761-.213-.208-.47-.314-.774-.314-.303 0-.562.106-.779.314-.215.21-.323.463-.323.76v1.45L.074 5.641V3.044c0-.822.293-1.524.88-2.108.585-.583 1.3-.875 2.143-.875.835 0 1.55.29 2.143.87.593.58.889 1.285.889 2.113v.995l.004 2.095z" transform="translate(16 16) matrix(1 0 0 -1 0 38.28) translate(.01 .044) translate(68.438 11.36)"/>
                        </g>
                        <path fill="#0ABBB5" fill-rule="nonzero" d="M31.183 0.899L30.284 0.899 30.284 34.711 31.183 34.711z" transform="translate(16 16) matrix(1 0 0 -1 0 38.28) translate(.01 .044)"/>
                        <g fill="#0ABBB5" fill-rule="nonzero">
                            <g>
                                <path d="M15.89 16.745l-6.95 4.247v2.083c0 .503.178.93.536 1.284.357.352.788.528 1.291.528.504 0 .931-.176 1.284-.528.353-.354.528-.781.528-1.284v-.86l3.305-2.03v2.823c0 1.387-.49 2.572-1.468 3.557-.978.984-2.167 1.476-3.565 1.476-1.375 0-2.555-.49-3.539-1.468-.983-.979-1.476-2.167-1.476-3.565v-3.656l6.743-4.12v-3.665c0-.505-.175-.931-.528-1.284-.353-.352-.78-.528-1.284-.528-.503 0-.934.176-1.291.528-.358.353-.537.78-.537 1.284v2.445l-3.103 1.901v-4.38c0-1.388.486-2.572 1.46-3.557.972-.983 2.158-1.476 3.555-1.476 1.386 0 2.573.489 3.556 1.467.985.98 1.477 2.168 1.477 3.566v1.68l.005 3.532z" transform="translate(16 16) matrix(1 0 0 -1 0 38.28) translate(.01 .044) translate(.407 .458) translate(.017 .083)"/>
                                <path d="M3.204 23.203c0 2.059.747 4.272 2.241 5.713 1.494 1.44 3.286 2.094 5.375 2.094 2.12 0 3.926-.657 5.41-2.106 1.486-1.45 2.23-3.66 2.23-5.7v-4.59l3.127-1.912v7.495c0 2.51-1.048 5.226-3.142 7.008-2.096 1.782-4.64 2.957-7.63 2.957-2.946 0-5.472-1.17-7.578-2.94-2.107-1.774-3.16-4.495-3.16-7.025v-1.323l3.127-1.911v2.24zM18.46 11.324c0-2.059-.749-4.272-2.243-5.713C14.723 4.17 12.924 3.52 10.82 3.52c-2.123 0-3.922.656-5.4 2.105-1.476 1.448-2.215 3.659-2.215 5.7v6.198L.076 19.434V10.33c0-2.51 1.042-5.226 3.125-7.008C5.283 1.54 7.821.366 10.814.366c2.967 0 5.505 1.17 7.612 2.943 2.108 1.771 3.161 4.492 3.161 7.022v2.93l-3.128 1.911v-3.848z" transform="translate(16 16) matrix(1 0 0 -1 0 38.28) translate(.01 .044) translate(.407 .458) translate(.017 .083)"/>
                            </g>
                        </g>
                    </g>
                </g>
            </g>
        </g>
    </g>
</svg>
