<svg width="212" height="252" viewBox="0 0 212 252" fill="none" xmlns="http://www.w3.org/2000/svg">
<g filter="url(#filter0_d_2_580)">
<rect x="8" y="48" width="196" height="196" rx="8" fill="#292929"/>
<rect x="16" y="56" width="88" height="88" rx="4" fill="#111111"/>
<path d="M48 89.3333H58.6667V76H48V89.3333ZM48 100H58.6667V92H48V100ZM61.3333 100H72V86.6667H61.3333V100ZM61.3333 76V84H72V76H61.3333Z" fill="#0ABBB5"/>
<path d="M37.002 120.635C37.002 121.6 36.8262 122.406 36.4746 123.055C36.123 123.699 35.6133 124.186 34.9453 124.514C34.2812 124.838 33.4746 125 32.5254 125H30.1992V116.434H32.7832C33.6543 116.434 34.4043 116.594 35.0332 116.914C35.6621 117.23 36.1465 117.701 36.4863 118.326C36.8301 118.947 37.002 119.717 37.002 120.635ZM35.9531 120.67C35.9531 119.9 35.8242 119.266 35.5664 118.766C35.3125 118.266 34.9375 117.895 34.4414 117.652C33.9492 117.406 33.3457 117.283 32.6309 117.283H31.1953V124.145H32.4082C33.5879 124.145 34.4727 123.854 35.0625 123.271C35.6562 122.689 35.9531 121.822 35.9531 120.67ZM41.1621 118.473C41.9277 118.473 42.4961 118.645 42.8672 118.988C43.2383 119.332 43.4238 119.881 43.4238 120.635V125H42.7148L42.5273 124.051H42.4805C42.3008 124.285 42.1133 124.482 41.918 124.643C41.7227 124.799 41.4961 124.918 41.2383 125C40.9844 125.078 40.6719 125.117 40.3008 125.117C39.9102 125.117 39.5625 125.049 39.2578 124.912C38.957 124.775 38.7188 124.568 38.543 124.291C38.3711 124.014 38.2852 123.662 38.2852 123.236C38.2852 122.596 38.5391 122.104 39.0469 121.76C39.5547 121.416 40.3281 121.229 41.3672 121.197L42.4746 121.15V120.758C42.4746 120.203 42.3555 119.814 42.1172 119.592C41.8789 119.369 41.543 119.258 41.1094 119.258C40.7734 119.258 40.4531 119.307 40.1484 119.404C39.8438 119.502 39.5547 119.617 39.2812 119.75L38.9824 119.012C39.2715 118.863 39.6035 118.736 39.9785 118.631C40.3535 118.525 40.748 118.473 41.1621 118.473ZM42.4629 121.836L41.4844 121.877C40.6836 121.908 40.1191 122.039 39.791 122.27C39.4629 122.5 39.2988 122.826 39.2988 123.248C39.2988 123.615 39.4102 123.887 39.6328 124.062C39.8555 124.238 40.1504 124.326 40.5176 124.326C41.0879 124.326 41.5547 124.168 41.918 123.852C42.2812 123.535 42.4629 123.061 42.4629 122.428V121.836ZM49.582 123.242C49.582 123.652 49.4785 123.998 49.2715 124.279C49.0684 124.557 48.7754 124.766 48.3926 124.906C48.0137 125.047 47.5605 125.117 47.0332 125.117C46.584 125.117 46.1953 125.082 45.8672 125.012C45.5391 124.941 45.252 124.842 45.0059 124.713V123.816C45.2676 123.945 45.5801 124.062 45.9434 124.168C46.3066 124.273 46.6777 124.326 47.0566 124.326C47.6113 124.326 48.0137 124.236 48.2637 124.057C48.5137 123.877 48.6387 123.633 48.6387 123.324C48.6387 123.148 48.5879 122.994 48.4863 122.861C48.3887 122.725 48.2227 122.594 47.9883 122.469C47.7539 122.34 47.4297 122.199 47.0156 122.047C46.6055 121.891 46.25 121.736 45.9492 121.584C45.6523 121.428 45.4219 121.238 45.2578 121.016C45.0977 120.793 45.0176 120.504 45.0176 120.148C45.0176 119.605 45.2363 119.189 45.6738 118.9C46.1152 118.607 46.6934 118.461 47.4082 118.461C47.7949 118.461 48.1562 118.5 48.4922 118.578C48.832 118.652 49.1484 118.754 49.4414 118.883L49.1133 119.662C48.8477 119.549 48.5645 119.453 48.2637 119.375C47.9629 119.297 47.6562 119.258 47.3438 119.258C46.8945 119.258 46.5488 119.332 46.3066 119.48C46.0684 119.629 45.9492 119.832 45.9492 120.09C45.9492 120.289 46.0039 120.453 46.1133 120.582C46.2266 120.711 46.4062 120.832 46.6523 120.945C46.8984 121.059 47.2227 121.191 47.625 121.344C48.0273 121.492 48.375 121.646 48.668 121.807C48.9609 121.963 49.1855 122.154 49.3418 122.381C49.502 122.604 49.582 122.891 49.582 123.242ZM52.1191 115.883V118.607C52.1191 118.764 52.1152 118.922 52.1074 119.082C52.0996 119.238 52.0859 119.383 52.0664 119.516H52.1309C52.2637 119.289 52.4316 119.1 52.6348 118.947C52.8418 118.791 53.0762 118.674 53.3379 118.596C53.5996 118.514 53.877 118.473 54.1699 118.473C54.6855 118.473 55.1152 118.555 55.459 118.719C55.8066 118.883 56.0664 119.137 56.2383 119.48C56.4141 119.824 56.502 120.27 56.502 120.816V125H55.541V120.881C55.541 120.346 55.418 119.945 55.1719 119.68C54.9297 119.414 54.5566 119.281 54.0527 119.281C53.5762 119.281 53.1953 119.373 52.9102 119.557C52.6289 119.736 52.4258 120.002 52.3008 120.354C52.1797 120.705 52.1191 121.135 52.1191 121.643V125H51.1465V115.883H52.1191ZM59.4785 115.883V118.162C59.4785 118.424 59.4707 118.678 59.4551 118.924C59.4434 119.17 59.4336 119.361 59.4258 119.498H59.4785C59.6543 119.209 59.9082 118.965 60.2402 118.766C60.5723 118.566 60.9961 118.467 61.5117 118.467C62.3164 118.467 62.957 118.746 63.4336 119.305C63.9141 119.859 64.1543 120.686 64.1543 121.783C64.1543 122.506 64.0449 123.115 63.8262 123.611C63.6074 124.107 63.2988 124.482 62.9004 124.736C62.502 124.99 62.0312 125.117 61.4883 125.117C60.9805 125.117 60.5625 125.023 60.2344 124.836C59.9102 124.645 59.6602 124.412 59.4844 124.139H59.4082L59.209 125H58.5059V115.883H59.4785ZM61.3535 119.281C60.8887 119.281 60.5195 119.373 60.2461 119.557C59.9727 119.736 59.7754 120.01 59.6543 120.377C59.5371 120.74 59.4785 121.201 59.4785 121.76V121.812C59.4785 122.621 59.6133 123.24 59.8828 123.67C60.1523 124.096 60.6426 124.309 61.3535 124.309C61.9512 124.309 62.3984 124.09 62.6953 123.652C62.9961 123.215 63.1465 122.59 63.1465 121.777C63.1465 120.949 62.998 120.326 62.7012 119.908C62.4082 119.49 61.959 119.281 61.3535 119.281ZM71.3906 121.777C71.3906 122.305 71.3223 122.775 71.1855 123.189C71.0488 123.604 70.8516 123.953 70.5938 124.238C70.3359 124.523 70.0234 124.742 69.6562 124.895C69.293 125.043 68.8809 125.117 68.4199 125.117C67.9902 125.117 67.5957 125.043 67.2363 124.895C66.8809 124.742 66.5723 124.523 66.3105 124.238C66.0527 123.953 65.8516 123.604 65.707 123.189C65.5664 122.775 65.4961 122.305 65.4961 121.777C65.4961 121.074 65.6152 120.477 65.8535 119.984C66.0918 119.488 66.4316 119.111 66.873 118.854C67.3184 118.592 67.8477 118.461 68.4609 118.461C69.0469 118.461 69.5586 118.592 69.9961 118.854C70.4375 119.115 70.7793 119.494 71.0215 119.99C71.2676 120.482 71.3906 121.078 71.3906 121.777ZM66.5039 121.777C66.5039 122.293 66.5723 122.74 66.709 123.119C66.8457 123.498 67.0566 123.791 67.3418 123.998C67.627 124.205 67.9941 124.309 68.4434 124.309C68.8887 124.309 69.2539 124.205 69.5391 123.998C69.8281 123.791 70.041 123.498 70.1777 123.119C70.3145 122.74 70.3828 122.293 70.3828 121.777C70.3828 121.266 70.3145 120.824 70.1777 120.453C70.041 120.078 69.8301 119.789 69.5449 119.586C69.2598 119.383 68.8906 119.281 68.4375 119.281C67.7695 119.281 67.2793 119.502 66.9668 119.943C66.6582 120.385 66.5039 120.996 66.5039 121.777ZM75.4746 118.473C76.2402 118.473 76.8086 118.645 77.1797 118.988C77.5508 119.332 77.7363 119.881 77.7363 120.635V125H77.0273L76.8398 124.051H76.793C76.6133 124.285 76.4258 124.482 76.2305 124.643C76.0352 124.799 75.8086 124.918 75.5508 125C75.2969 125.078 74.9844 125.117 74.6133 125.117C74.2227 125.117 73.875 125.049 73.5703 124.912C73.2695 124.775 73.0312 124.568 72.8555 124.291C72.6836 124.014 72.5977 123.662 72.5977 123.236C72.5977 122.596 72.8516 122.104 73.3594 121.76C73.8672 121.416 74.6406 121.229 75.6797 121.197L76.7871 121.15V120.758C76.7871 120.203 76.668 119.814 76.4297 119.592C76.1914 119.369 75.8555 119.258 75.4219 119.258C75.0859 119.258 74.7656 119.307 74.4609 119.404C74.1562 119.502 73.8672 119.617 73.5938 119.75L73.2949 119.012C73.584 118.863 73.916 118.736 74.291 118.631C74.666 118.525 75.0605 118.473 75.4746 118.473ZM76.7754 121.836L75.7969 121.877C74.9961 121.908 74.4316 122.039 74.1035 122.27C73.7754 122.5 73.6113 122.826 73.6113 123.248C73.6113 123.615 73.7227 123.887 73.9453 124.062C74.168 124.238 74.4629 124.326 74.8301 124.326C75.4004 124.326 75.8672 124.168 76.2305 123.852C76.5938 123.535 76.7754 123.061 76.7754 122.428V121.836ZM82.6582 118.461C82.7871 118.461 82.9219 118.469 83.0625 118.484C83.2031 118.496 83.3281 118.514 83.4375 118.537L83.3145 119.439C83.209 119.412 83.0918 119.391 82.9629 119.375C82.834 119.359 82.7129 119.352 82.5996 119.352C82.3418 119.352 82.0977 119.404 81.8672 119.51C81.6406 119.611 81.4414 119.76 81.2695 119.955C81.0977 120.146 80.9629 120.379 80.8652 120.652C80.7676 120.922 80.7188 121.223 80.7188 121.555V125H79.7402V118.578H80.5488L80.6543 119.762H80.6953C80.8281 119.523 80.9883 119.307 81.1758 119.111C81.3633 118.912 81.5801 118.754 81.8262 118.637C82.0762 118.52 82.3535 118.461 82.6582 118.461ZM86.9355 125.117C86.123 125.117 85.4785 124.84 85.002 124.285C84.5293 123.73 84.293 122.906 84.293 121.812C84.293 120.707 84.5352 119.873 85.0195 119.311C85.5039 118.744 86.1484 118.461 86.9531 118.461C87.293 118.461 87.5898 118.506 87.8438 118.596C88.0977 118.686 88.3164 118.807 88.5 118.959C88.6836 119.107 88.8379 119.277 88.9629 119.469H89.0332C89.0176 119.348 89.002 119.182 88.9863 118.971C88.9707 118.76 88.9629 118.588 88.9629 118.455V115.883H89.9355V125H89.1504L89.0039 124.086H88.9629C88.8418 124.277 88.6875 124.451 88.5 124.607C88.3164 124.764 88.0957 124.889 87.8379 124.982C87.584 125.072 87.2832 125.117 86.9355 125.117ZM87.0879 124.309C87.7754 124.309 88.2617 124.113 88.5469 123.723C88.832 123.332 88.9746 122.752 88.9746 121.982V121.807C88.9746 120.99 88.8379 120.363 88.5645 119.926C88.2949 119.488 87.8027 119.27 87.0879 119.27C86.4902 119.27 86.043 119.5 85.7461 119.961C85.4492 120.418 85.3008 121.043 85.3008 121.836C85.3008 122.625 85.4473 123.234 85.7402 123.664C86.0371 124.094 86.4863 124.309 87.0879 124.309Z" fill="white"/>
<rect x="108" y="56" width="88" height="88" rx="4" fill="#EAEEF5"/>
<path d="M155.639 83.2595L156.493 83.2754L158.813 80.9551L158.926 79.9725C157.083 78.3319 154.657 77.3334 152 77.3334C147.19 77.3334 143.133 80.6044 141.93 85.0392C142.184 84.8638 142.725 84.9942 142.725 84.9942L147.362 84.2319C147.362 84.2319 147.603 83.8377 147.72 83.8624C148.781 82.7015 150.307 81.9711 152 81.9711C153.377 81.9711 154.643 82.4551 155.639 83.2595Z" fill="#EA4335"/>
<path d="M162.073 85.045C161.535 83.0566 160.422 81.303 158.925 79.9711L155.638 83.258C156.954 84.3218 157.797 85.9479 157.797 87.7682V88.3479C159.396 88.3479 160.696 89.6479 160.696 91.2464C160.696 92.845 159.396 94.145 157.797 94.145H152L151.42 94.7276V98.2059L152 98.7827H157.797C161.952 98.7827 165.333 95.4015 165.333 91.2464C165.333 88.6769 164.041 86.4059 162.073 85.045Z" fill="#4285F4"/>
<path d="M146.203 98.7827H151.996V94.145H146.203C145.777 94.145 145.374 94.0508 145.009 93.8842L144.174 94.1407L141.852 96.4624L141.649 97.2465C142.915 98.2088 144.493 98.7827 146.203 98.7827Z" fill="#34A853"/>
<path d="M146.203 83.7102C142.048 83.7102 138.667 87.0914 138.667 91.2464C138.667 93.6928 139.839 95.8711 141.652 97.2479L145.013 93.887C144.007 93.4319 143.304 92.4204 143.304 91.2464C143.304 89.6479 144.604 88.3479 146.203 88.3479C147.377 88.3479 148.388 89.0508 148.844 90.0566L152.204 86.6957C150.828 84.8827 148.649 83.7102 146.203 83.7102Z" fill="#FBBC05"/>
<path d="M141.102 116.434L138.025 125H137.023L133.947 116.434H134.99L136.994 122.076C137.076 122.303 137.148 122.52 137.211 122.727C137.277 122.934 137.336 123.133 137.387 123.324C137.438 123.516 137.482 123.701 137.521 123.881C137.561 123.701 137.605 123.516 137.656 123.324C137.707 123.129 137.766 122.928 137.832 122.721C137.898 122.51 137.973 122.289 138.055 122.059L140.047 116.434H141.102ZM144.605 118.461C145.152 118.461 145.621 118.582 146.012 118.824C146.402 119.066 146.701 119.406 146.908 119.844C147.115 120.277 147.219 120.785 147.219 121.367V121.971H142.783C142.795 122.725 142.982 123.299 143.346 123.693C143.709 124.088 144.221 124.285 144.881 124.285C145.287 124.285 145.646 124.248 145.959 124.174C146.271 124.1 146.596 123.99 146.932 123.846V124.701C146.607 124.846 146.285 124.951 145.965 125.018C145.648 125.084 145.273 125.117 144.84 125.117C144.223 125.117 143.684 124.992 143.223 124.742C142.766 124.488 142.41 124.117 142.156 123.629C141.902 123.141 141.775 122.543 141.775 121.836C141.775 121.145 141.891 120.547 142.121 120.043C142.355 119.535 142.684 119.145 143.105 118.871C143.531 118.598 144.031 118.461 144.605 118.461ZM144.594 119.258C144.074 119.258 143.66 119.428 143.352 119.768C143.043 120.107 142.859 120.582 142.801 121.191H146.199C146.195 120.809 146.135 120.473 146.018 120.184C145.904 119.891 145.73 119.664 145.496 119.504C145.262 119.34 144.961 119.258 144.594 119.258ZM151.789 118.461C151.918 118.461 152.053 118.469 152.193 118.484C152.334 118.496 152.459 118.514 152.568 118.537L152.445 119.439C152.34 119.412 152.223 119.391 152.094 119.375C151.965 119.359 151.844 119.352 151.73 119.352C151.473 119.352 151.229 119.404 150.998 119.51C150.771 119.611 150.572 119.76 150.4 119.955C150.229 120.146 150.094 120.379 149.996 120.652C149.898 120.922 149.85 121.223 149.85 121.555V125H148.871V118.578H149.68L149.785 119.762H149.826C149.959 119.523 150.119 119.307 150.307 119.111C150.494 118.912 150.711 118.754 150.957 118.637C151.207 118.52 151.484 118.461 151.789 118.461ZM155.855 124.32C156.016 124.32 156.18 124.307 156.348 124.279C156.516 124.252 156.652 124.219 156.758 124.18V124.936C156.645 124.986 156.486 125.029 156.283 125.064C156.084 125.1 155.889 125.117 155.697 125.117C155.357 125.117 155.049 125.059 154.771 124.941C154.494 124.82 154.271 124.617 154.104 124.332C153.939 124.047 153.857 123.652 153.857 123.148V119.34H152.943V118.865L153.863 118.484L154.25 117.09H154.836V118.578H156.717V119.34H154.836V123.119C154.836 123.521 154.928 123.822 155.111 124.021C155.299 124.221 155.547 124.32 155.855 124.32ZM160.531 118.461C161.078 118.461 161.547 118.582 161.938 118.824C162.328 119.066 162.627 119.406 162.834 119.844C163.041 120.277 163.145 120.785 163.145 121.367V121.971H158.709C158.721 122.725 158.908 123.299 159.271 123.693C159.635 124.088 160.146 124.285 160.807 124.285C161.213 124.285 161.572 124.248 161.885 124.174C162.197 124.1 162.521 123.99 162.857 123.846V124.701C162.533 124.846 162.211 124.951 161.891 125.018C161.574 125.084 161.199 125.117 160.766 125.117C160.148 125.117 159.609 124.992 159.148 124.742C158.691 124.488 158.336 124.117 158.082 123.629C157.828 123.141 157.701 122.543 157.701 121.836C157.701 121.145 157.816 120.547 158.047 120.043C158.281 119.535 158.609 119.145 159.031 118.871C159.457 118.598 159.957 118.461 160.531 118.461ZM160.52 119.258C160 119.258 159.586 119.428 159.277 119.768C158.969 120.107 158.785 120.582 158.727 121.191H162.125C162.121 120.809 162.061 120.473 161.943 120.184C161.83 119.891 161.656 119.664 161.422 119.504C161.188 119.34 160.887 119.258 160.52 119.258ZM166.326 121.713L164.105 118.578H165.219L166.912 121.051L168.6 118.578H169.701L167.48 121.713L169.824 125H168.711L166.912 122.381L165.102 125H164L166.326 121.713Z" fill="#111111"/>
<rect x="16" y="148" width="88" height="88" rx="4" fill="#111111"/>
<path fill-rule="evenodd" clip-rule="evenodd" d="M50.303 170.303H69.6969V189.697H50.303V170.303Z" fill="#E68F52" fill-opacity="0.2"/>
<path fill-rule="evenodd" clip-rule="evenodd" d="M66.0607 168.606C66.0607 167.927 66.0607 167.588 66.1928 167.328C66.309 167.1 66.4944 166.915 66.7225 166.799C66.9818 166.667 67.3212 166.667 68.0001 166.667H71.394C72.0729 166.667 72.4123 166.667 72.6716 166.799C72.8997 166.915 73.0851 167.1 73.2013 167.328C73.3334 167.588 73.3334 167.927 73.3334 168.606V172C73.3334 172.679 73.3334 173.018 73.2013 173.278C73.0851 173.506 72.8997 173.691 72.6716 173.807C72.4123 173.939 72.0729 173.939 71.394 173.939H70.9092V186.061H71.394C72.0729 186.061 72.4123 186.061 72.6716 186.193C72.8997 186.309 73.0851 186.494 73.2013 186.722C73.3334 186.982 73.3334 187.321 73.3334 188V191.394C73.3334 192.073 73.3334 192.412 73.2013 192.671C73.0851 192.9 72.8997 193.085 72.6716 193.201C72.4123 193.333 72.0729 193.333 71.394 193.333H68.0001C67.3212 193.333 66.9818 193.333 66.7225 193.201C66.4944 193.085 66.309 192.9 66.1928 192.671C66.0607 192.412 66.0607 192.073 66.0607 191.394V190.909H53.9395V191.394C53.9395 192.073 53.9395 192.412 53.8074 192.671C53.6911 192.9 53.5057 193.085 53.2776 193.201C53.0184 193.333 52.6789 193.333 52.0001 193.333H48.6061C47.9273 193.333 47.5879 193.333 47.3286 193.201C47.1005 193.085 46.9151 192.9 46.7989 192.671C46.6667 192.412 46.6667 192.073 46.6667 191.394V188C46.6667 187.321 46.6667 186.982 46.7989 186.722C46.9151 186.494 47.1005 186.309 47.3286 186.193C47.5879 186.061 47.9273 186.061 48.6061 186.061H49.091V173.939H48.6061C47.9273 173.939 47.5879 173.939 47.3286 173.807C47.1005 173.691 46.9151 173.506 46.7989 173.278C46.6667 173.018 46.6667 172.679 46.6667 172V168.606C46.6667 167.927 46.6667 167.588 46.7989 167.328C46.9151 167.1 47.1005 166.915 47.3286 166.799C47.5879 166.667 47.9273 166.667 48.6061 166.667H52.0001C52.6789 166.667 53.0184 166.667 53.2776 166.799C53.5057 166.915 53.6911 167.1 53.8074 167.328C53.9395 167.588 53.9395 167.927 53.9395 168.606V169.091H66.0607V168.606ZM53.9395 171.515V172C53.9395 172.679 53.9395 173.018 53.8074 173.278C53.6911 173.506 53.5057 173.691 53.2776 173.807C53.0184 173.939 52.6789 173.939 52.0001 173.939H51.5152V186.061H52.0001C52.6789 186.061 53.0184 186.061 53.2776 186.193C53.5057 186.309 53.6911 186.494 53.8074 186.722C53.9395 186.982 53.9395 187.321 53.9395 188V188.485H66.0607V188C66.0607 187.321 66.0607 186.982 66.1928 186.722C66.309 186.494 66.4944 186.309 66.7225 186.193C66.9818 186.061 67.3212 186.061 68.0001 186.061H68.4849V173.939H68.0001C67.3212 173.939 66.9818 173.939 66.7225 173.807C66.4944 173.691 66.309 173.506 66.1928 173.278C66.0607 173.018 66.0607 172.679 66.0607 172V171.515H53.9395Z" fill="#E68F52"/>
<path d="M26.6719 217V208.434H27.668V216.109H31.4707V217H26.6719ZM35.1973 210.473C35.9629 210.473 36.5312 210.645 36.9023 210.988C37.2734 211.332 37.459 211.881 37.459 212.635V217H36.75L36.5625 216.051H36.5156C36.3359 216.285 36.1484 216.482 35.9531 216.643C35.7578 216.799 35.5312 216.918 35.2734 217C35.0195 217.078 34.707 217.117 34.3359 217.117C33.9453 217.117 33.5977 217.049 33.293 216.912C32.9922 216.775 32.7539 216.568 32.5781 216.291C32.4062 216.014 32.3203 215.662 32.3203 215.236C32.3203 214.596 32.5742 214.104 33.082 213.76C33.5898 213.416 34.3633 213.229 35.4023 213.197L36.5098 213.15V212.758C36.5098 212.203 36.3906 211.814 36.1523 211.592C35.9141 211.369 35.5781 211.258 35.1445 211.258C34.8086 211.258 34.4883 211.307 34.1836 211.404C33.8789 211.502 33.5898 211.617 33.3164 211.75L33.0176 211.012C33.3066 210.863 33.6387 210.736 34.0137 210.631C34.3887 210.525 34.7832 210.473 35.1973 210.473ZM36.498 213.836L35.5195 213.877C34.7188 213.908 34.1543 214.039 33.8262 214.27C33.498 214.5 33.334 214.826 33.334 215.248C33.334 215.615 33.4453 215.887 33.668 216.062C33.8906 216.238 34.1855 216.326 34.5527 216.326C35.123 216.326 35.5898 216.168 35.9531 215.852C36.3164 215.535 36.498 215.061 36.498 214.428V213.836ZM40.4355 207.883V210.162C40.4355 210.424 40.4277 210.678 40.4121 210.924C40.4004 211.17 40.3906 211.361 40.3828 211.498H40.4355C40.6113 211.209 40.8652 210.965 41.1973 210.766C41.5293 210.566 41.9531 210.467 42.4688 210.467C43.2734 210.467 43.9141 210.746 44.3906 211.305C44.8711 211.859 45.1113 212.686 45.1113 213.783C45.1113 214.506 45.002 215.115 44.7832 215.611C44.5645 216.107 44.2559 216.482 43.8574 216.736C43.459 216.99 42.9883 217.117 42.4453 217.117C41.9375 217.117 41.5195 217.023 41.1914 216.836C40.8672 216.645 40.6172 216.412 40.4414 216.139H40.3652L40.166 217H39.4629V207.883H40.4355ZM42.3105 211.281C41.8457 211.281 41.4766 211.373 41.2031 211.557C40.9297 211.736 40.7324 212.01 40.6113 212.377C40.4941 212.74 40.4355 213.201 40.4355 213.76V213.812C40.4355 214.621 40.5703 215.24 40.8398 215.67C41.1094 216.096 41.5996 216.309 42.3105 216.309C42.9082 216.309 43.3555 216.09 43.6523 215.652C43.9531 215.215 44.1035 214.59 44.1035 213.777C44.1035 212.949 43.9551 212.326 43.6582 211.908C43.3652 211.49 42.916 211.281 42.3105 211.281ZM49.2832 210.461C49.8301 210.461 50.2988 210.582 50.6895 210.824C51.0801 211.066 51.3789 211.406 51.5859 211.844C51.793 212.277 51.8965 212.785 51.8965 213.367V213.971H47.4609C47.4727 214.725 47.6602 215.299 48.0234 215.693C48.3867 216.088 48.8984 216.285 49.5586 216.285C49.9648 216.285 50.3242 216.248 50.6367 216.174C50.9492 216.1 51.2734 215.99 51.6094 215.846V216.701C51.2852 216.846 50.9629 216.951 50.6426 217.018C50.3262 217.084 49.9512 217.117 49.5176 217.117C48.9004 217.117 48.3613 216.992 47.9004 216.742C47.4434 216.488 47.0879 216.117 46.834 215.629C46.5801 215.141 46.4531 214.543 46.4531 213.836C46.4531 213.145 46.5684 212.547 46.7988 212.043C47.0332 211.535 47.3613 211.145 47.7832 210.871C48.209 210.598 48.709 210.461 49.2832 210.461ZM49.2715 211.258C48.752 211.258 48.3379 211.428 48.0293 211.768C47.7207 212.107 47.5371 212.582 47.4785 213.191H50.877C50.873 212.809 50.8125 212.473 50.6953 212.184C50.582 211.891 50.4082 211.664 50.1738 211.504C49.9395 211.34 49.6387 211.258 49.2715 211.258ZM54.5273 217H53.5488V207.883H54.5273V217ZM64.6816 214.721C64.6816 215.229 64.5547 215.662 64.3008 216.021C64.0508 216.377 63.6992 216.648 63.2461 216.836C62.793 217.023 62.2598 217.117 61.6465 217.117C61.3223 217.117 61.0156 217.102 60.7266 217.07C60.4375 217.039 60.1719 216.994 59.9297 216.936C59.6875 216.877 59.4746 216.805 59.291 216.719V215.764C59.584 215.885 59.9414 215.998 60.3633 216.104C60.7852 216.205 61.2266 216.256 61.6875 216.256C62.1172 216.256 62.4805 216.199 62.7773 216.086C63.0742 215.969 63.2988 215.803 63.4512 215.588C63.6074 215.369 63.6855 215.107 63.6855 214.803C63.6855 214.51 63.6211 214.266 63.4922 214.07C63.3633 213.871 63.1484 213.691 62.8477 213.531C62.5508 213.367 62.1445 213.193 61.6289 213.01C61.2656 212.881 60.9453 212.74 60.668 212.588C60.3906 212.432 60.1582 212.256 59.9707 212.061C59.7832 211.865 59.6406 211.639 59.543 211.381C59.4492 211.123 59.4023 210.828 59.4023 210.496C59.4023 210.039 59.5176 209.648 59.748 209.324C59.9824 208.996 60.3047 208.746 60.7148 208.574C61.1289 208.398 61.6035 208.311 62.1387 208.311C62.5957 208.311 63.0176 208.354 63.4043 208.439C63.7949 208.525 64.1523 208.641 64.4766 208.785L64.166 209.641C63.8574 209.512 63.5293 209.404 63.1816 209.318C62.8379 209.232 62.4824 209.189 62.1152 209.189C61.748 209.189 61.4375 209.244 61.1836 209.354C60.9336 209.459 60.7422 209.609 60.6094 209.805C60.4766 210 60.4102 210.232 60.4102 210.502C60.4102 210.803 60.4727 211.053 60.5977 211.252C60.7266 211.451 60.9297 211.629 61.207 211.785C61.4883 211.938 61.8594 212.098 62.3203 212.266C62.8242 212.449 63.252 212.645 63.6035 212.852C63.9551 213.055 64.2227 213.305 64.4062 213.602C64.5898 213.895 64.6816 214.268 64.6816 214.721ZM68.3613 216.32C68.5215 216.32 68.6855 216.307 68.8535 216.279C69.0215 216.252 69.1582 216.219 69.2637 216.18V216.936C69.1504 216.986 68.9922 217.029 68.7891 217.064C68.5898 217.1 68.3945 217.117 68.2031 217.117C67.8633 217.117 67.5547 217.059 67.2773 216.941C67 216.82 66.7773 216.617 66.6094 216.332C66.4453 216.047 66.3633 215.652 66.3633 215.148V211.34H65.4492V210.865L66.3691 210.484L66.7559 209.09H67.3418V210.578H69.2227V211.34H67.3418V215.119C67.3418 215.521 67.4336 215.822 67.6172 216.021C67.8047 216.221 68.0527 216.32 68.3613 216.32ZM75.8672 210.578V217H75.0703L74.9297 216.098H74.877C74.7441 216.32 74.5723 216.508 74.3613 216.66C74.1504 216.812 73.9121 216.926 73.6465 217C73.3848 217.078 73.1055 217.117 72.8086 217.117C72.3008 217.117 71.875 217.035 71.5312 216.871C71.1875 216.707 70.9277 216.453 70.752 216.109C70.5801 215.766 70.4941 215.324 70.4941 214.785V210.578H71.4785V214.715C71.4785 215.25 71.5996 215.65 71.8418 215.916C72.084 216.178 72.4531 216.309 72.9492 216.309C73.4258 216.309 73.8047 216.219 74.0859 216.039C74.3711 215.859 74.5762 215.596 74.7012 215.248C74.8262 214.896 74.8887 214.467 74.8887 213.959V210.578H75.8672ZM80.209 217.117C79.3965 217.117 78.752 216.84 78.2754 216.285C77.8027 215.73 77.5664 214.906 77.5664 213.812C77.5664 212.707 77.8086 211.873 78.293 211.311C78.7773 210.744 79.4219 210.461 80.2266 210.461C80.5664 210.461 80.8633 210.506 81.1172 210.596C81.3711 210.686 81.5898 210.807 81.7734 210.959C81.957 211.107 82.1113 211.277 82.2363 211.469H82.3066C82.291 211.348 82.2754 211.182 82.2598 210.971C82.2441 210.76 82.2363 210.588 82.2363 210.455V207.883H83.209V217H82.4238L82.2773 216.086H82.2363C82.1152 216.277 81.9609 216.451 81.7734 216.607C81.5898 216.764 81.3691 216.889 81.1113 216.982C80.8574 217.072 80.5566 217.117 80.209 217.117ZM80.3613 216.309C81.0488 216.309 81.5352 216.113 81.8203 215.723C82.1055 215.332 82.248 214.752 82.248 213.982V213.807C82.248 212.99 82.1113 212.363 81.8379 211.926C81.5684 211.488 81.0762 211.27 80.3613 211.27C79.7637 211.27 79.3164 211.5 79.0195 211.961C78.7227 212.418 78.5742 213.043 78.5742 213.836C78.5742 214.625 78.7207 215.234 79.0137 215.664C79.3105 216.094 79.7598 216.309 80.3613 216.309ZM86.2441 210.578V217H85.2715V210.578H86.2441ZM85.7695 208.176C85.9297 208.176 86.0664 208.229 86.1797 208.334C86.2969 208.436 86.3555 208.596 86.3555 208.814C86.3555 209.029 86.2969 209.189 86.1797 209.295C86.0664 209.4 85.9297 209.453 85.7695 209.453C85.6016 209.453 85.4609 209.4 85.3477 209.295C85.2383 209.189 85.1836 209.029 85.1836 208.814C85.1836 208.596 85.2383 208.436 85.3477 208.334C85.4609 208.229 85.6016 208.176 85.7695 208.176ZM93.8438 213.777C93.8438 214.305 93.7754 214.775 93.6387 215.189C93.502 215.604 93.3047 215.953 93.0469 216.238C92.7891 216.523 92.4766 216.742 92.1094 216.895C91.7461 217.043 91.334 217.117 90.873 217.117C90.4434 217.117 90.0488 217.043 89.6895 216.895C89.334 216.742 89.0254 216.523 88.7637 216.238C88.5059 215.953 88.3047 215.604 88.1602 215.189C88.0195 214.775 87.9492 214.305 87.9492 213.777C87.9492 213.074 88.0684 212.477 88.3066 211.984C88.5449 211.488 88.8848 211.111 89.3262 210.854C89.7715 210.592 90.3008 210.461 90.9141 210.461C91.5 210.461 92.0117 210.592 92.4492 210.854C92.8906 211.115 93.2324 211.494 93.4746 211.99C93.7207 212.482 93.8438 213.078 93.8438 213.777ZM88.957 213.777C88.957 214.293 89.0254 214.74 89.1621 215.119C89.2988 215.498 89.5098 215.791 89.7949 215.998C90.0801 216.205 90.4473 216.309 90.8965 216.309C91.3418 216.309 91.707 216.205 91.9922 215.998C92.2812 215.791 92.4941 215.498 92.6309 215.119C92.7676 214.74 92.8359 214.293 92.8359 213.777C92.8359 213.266 92.7676 212.824 92.6309 212.453C92.4941 212.078 92.2832 211.789 91.998 211.586C91.7129 211.383 91.3438 211.281 90.8906 211.281C90.2227 211.281 89.7324 211.502 89.4199 211.943C89.1113 212.385 88.957 212.996 88.957 213.777Z" fill="white"/>
</g>
<g clip-path="url(#clip0_2_580)">
<path d="M98 8H102V4H98V8ZM104 20H108V16H104V20ZM98 20H102V16H98V20ZM98 14H102V10H98V14ZM104 14H108V10H104V14ZM110 4V8H114V4H110ZM104 8H108V4H104V8ZM110 14H114V10H110V14ZM110 20H114V16H110V20Z" fill="white"/>
</g>
<defs>
<filter id="filter0_d_2_580" x="0" y="40" width="212" height="212" filterUnits="userSpaceOnUse" color-interpolation-filters="sRGB">
<feFlood flood-opacity="0" result="BackgroundImageFix"/>
<feColorMatrix in="SourceAlpha" type="matrix" values="0 0 0 0 0 0 0 0 0 0 0 0 0 0 0 0 0 0 127 0" result="hardAlpha"/>
<feOffset/>
<feGaussianBlur stdDeviation="4"/>
<feComposite in2="hardAlpha" operator="out"/>
<feColorMatrix type="matrix" values="0 0 0 0 0 0 0 0 0 0 0 0 0 0 0 0 0 0 0.25 0"/>
<feBlend mode="normal" in2="BackgroundImageFix" result="effect1_dropShadow_2_580"/>
<feBlend mode="normal" in="SourceGraphic" in2="effect1_dropShadow_2_580" result="shape"/>
</filter>
<clipPath id="clip0_2_580">
<rect width="24" height="24" fill="white" transform="translate(94)"/>
</clipPath>
</defs>
</svg>
