<svg width="24" height="25" viewBox="0 0 24 25" fill="none" xmlns="http://www.w3.org/2000/svg">
  <g clip-path="url(#clip0_2_489)">
    <path d="M19.1401 13.44C19.1801 13.14 19.2001 12.83 19.2001 12.5C19.2001 12.18 19.1801 11.86 19.1301 11.56L21.1601 9.98002C21.3401 9.84002 21.3901 9.57002 21.2801 9.37002L19.3601 6.05002C19.2401 5.83002 18.9901 5.76002 18.7701 5.83002L16.3801 6.79002C15.8801 6.41002 15.3501 6.09002 14.7601 5.85002L14.4001 3.31002C14.3601 3.07002 14.1601 2.90002 13.9201 2.90002H10.0801C9.84011 2.90002 9.65011 3.07002 9.61011 3.31002L9.25011 5.85002C8.66011 6.09002 8.12011 6.42002 7.63011 6.79002L5.24011 5.83002C5.02011 5.75002 4.77011 5.83002 4.65011 6.05002L2.74011 9.37002C2.62011 9.58002 2.66011 9.84002 2.86011 9.98002L4.89011 11.56C4.84011 11.86 4.80011 12.19 4.80011 12.5C4.80011 12.81 4.82011 13.14 4.87011 13.44L2.84011 15.02C2.66011 15.16 2.61011 15.43 2.72011 15.63L4.64011 18.95C4.76011 19.17 5.01011 19.24 5.23011 19.17L7.62011 18.21C8.12011 18.59 8.65011 18.91 9.24011 19.15L9.60011 21.69C9.65011 21.93 9.84011 22.1 10.0801 22.1H13.9201C14.1601 22.1 14.3601 21.93 14.3901 21.69L14.7501 19.15C15.3401 18.91 15.8801 18.59 16.3701 18.21L18.7601 19.17C18.9801 19.25 19.2301 19.17 19.3501 18.95L21.2701 15.63C21.3901 15.41 21.3401 15.16 21.1501 15.02L19.1401 13.44ZM12.0001 16.1C10.0201 16.1 8.40011 14.48 8.40011 12.5C8.40011 10.52 10.0201 8.90002 12.0001 8.90002C13.9801 8.90002 15.6001 10.52 15.6001 12.5C15.6001 14.48 13.9801 16.1 12.0001 16.1Z" fill="#111111"/>
  </g>
  <defs>
  <clipPath id="clip0_2_489">
    <rect width="24" height="24" fill="white" transform="translate(0 0.5)"/>
  </clipPath>
  </defs>
</svg>
